<svg width="142" height="223" viewBox="0 0 142 223" fill="none" xmlns="http://www.w3.org/2000/svg">
<path d="M0 51V119.5C10 87.9 41.1667 72 55.5 68C57.6667 67 68.5 62.7 94.5 53.5C120.5 44.3 133.667 23.3333 137 14C135 21 131 63.5 67 82.5C15.8 97.7 3 133.833 3 150V222.5C10 217 19 194.5 82 167.5C132.4 145.9 142.333 101.833 141 82.5C123.5 109 115 119.5 67 140.5C28.6 157.3 10.3333 190.833 6 205.5C5.5 172 24 139.5 82 116.5C128.4 98.1 139.333 57.8333 139 40V0C122.5 20.5 64 23 32.5 24C7.3 24.8 0.333333 42.3333 0 51Z" fill="#CACACA"/>
</svg>
